<?xml version="1.0" encoding="UTF-8" standalone="no"?><!DOCTYPE svg PUBLIC "-//W3C//DTD SVG 1.1//EN" "http://www.w3.org/Graphics/SVG/1.1/DTD/svg11.dtd"><svg width="100%" height="100%" viewBox="0 0 1500 2134" version="1.1" xmlns="http://www.w3.org/2000/svg" xmlns:xlink="http://www.w3.org/1999/xlink" xml:space="preserve" xmlns:serif="http://www.serif.com/" style="fill-rule:evenodd;clip-rule:evenodd;stroke-linejoin:round;stroke-miterlimit:2;"><path d="M131.85,1961.99l-137.546,-1542.74l1511.39,0l-137.692,1542.5l-618.929,171.587l-617.225,-171.345Z" style="fill:#e44d26;fill-rule:nonzero;"/><path d="M750,2002.18l500.125,-138.654l117.667,-1318.13l-617.792,-0l0,1456.79Z" style="fill:#f16529;fill-rule:nonzero;"/><path d="M750,1117.57l-250.375,-0l-17.292,-193.754l267.667,-0l0,-189.213l-474.45,0l4.529,50.763l46.504,521.412l423.417,0l0,-189.208Z" style="fill:#ebebeb;fill-rule:nonzero;"/><path d="M750,1608.97l-0.829,0.221l-210.725,-56.9l-13.471,-150.904l-189.938,-0l26.509,297.087l387.583,107.596l0.871,-0.242l-0,-196.858Z" style="fill:#ebebeb;fill-rule:nonzero;"/><path d="M134.925,0l96.154,0l0,95l87.959,0l-0,-95l96.158,0l-0,287.683l-96.154,0l-0,-96.333l-87.959,0l0,96.333l-96.154,0l0,-287.683l-0.004,0Z" style="fill:#fff;fill-rule:nonzero;"/><path d="M541.646,95.4l-84.654,0l-0,-95.4l265.5,0l-0,95.4l-84.688,0l0,192.283l-96.158,0l-0,-192.283Z" style="fill:#fff;fill-rule:nonzero;"/><path d="M764.629,0l100.263,0l61.675,101.083l61.612,-101.083l100.3,0l0,287.683l-95.758,0l-0,-142.591l-66.154,102.287l-1.654,0l-66.2,-102.287l-0,142.591l-94.084,0l0,-287.683Z" style="fill:#fff;fill-rule:nonzero;"/><path d="M1136.33,0l96.184,0l-0,192.592l135.221,-0l-0,95.091l-231.405,0l0,-287.683Z" style="fill:#fff;fill-rule:nonzero;"/><path d="M749.346,1117.57l-0,189.208l232.992,0l-21.963,245.392l-211.029,56.958l-0,196.85l387.892,-107.504l2.845,-31.967l44.463,-498.129l4.617,-50.808l-439.817,-0Z" style="fill:#fff;fill-rule:nonzero;"/><path d="M749.346,734.604l-0,189.213l457.033,-0l3.796,-42.529l8.621,-95.921l4.525,-50.763l-473.975,0Z" style="fill:#fff;fill-rule:nonzero;"/></svg>